{
    "asset" : {
        "generator" : "Khronos glTF Blender I/O v1.1.45",
        "version" : "2.0"
    },
    "scene" : 0,
    "scenes" : [
        {
            "name" : "Scene",
            "nodes" : [
                0,
                1
            ]
        }
    ],
    "nodes" : [
        {
            "mesh" : 0,
            "name" : "Plane",
            "scale" : [
                100,
                100,
                100
            ]
        },
        {
            "mesh" : 1,
            "name" : "Plane.001",
            "scale" : [
                1170.5953369140625,
                1170.5953369140625,
                1170.5953369140625
            ],
            "translation" : [
                0,
                0.8396414518356323,
                0
            ]
        }
    ],
    "materials" : [
        {
            "doubleSided" : true,
            "emissiveFactor" : [
                0,
                0,
                0
            ],
            "name" : "Material.001",
            "pbrMetallicRoughness" : {
                "baseColorTexture" : {
                    "index" : 0,
                    "texCoord" : 0
                },
                "metallicFactor" : 0,
                "roughnessFactor" : 0
            }
        },
        {
            "doubleSided" : true,
            "emissiveFactor" : [
                0,
                0,
                0
            ],
            "name" : "Material.002",
            "pbrMetallicRoughness" : {
                "baseColorFactor" : [
                    0.06184724345803261,
                    0.5679181218147278,
                    0.8000000715255737,
                    1
                ],
                "metallicFactor" : 0.7368420958518982,
                "roughnessFactor" : 0
            }
        }
    ],
    "meshes" : [
        {
            "name" : "Plane",
            "primitives" : [
                {
                    "attributes" : {
                        "POSITION" : 0,
                        "NORMAL" : 1,
                        "TEXCOORD_0" : 2
                    },
                    "indices" : 3,
                    "material" : 0
                }
            ]
        },
        {
            "name" : "Plane.001",
            "primitives" : [
                {
                    "attributes" : {
                        "POSITION" : 4,
                        "NORMAL" : 5,
                        "TEXCOORD_0" : 6
                    },
                    "indices" : 7,
                    "material" : 1
                }
            ]
        }
    ],
    "textures" : [
        {
            "sampler" : 0,
            "source" : 0
        }
    ],
    "images" : [
        {
            "bufferView" : 4,
            "mimeType" : "image/png",
            "name" : "Mask"
        }
    ],
    "accessors" : [
        {
            "bufferView" : 0,
            "componentType" : 5126,
            "count" : 1122,
            "max" : [
                1,
                0.24574314057826996,
                1
            ],
            "min" : [
                -1,
                -0.08696207404136658,
                -1
            ],
            "type" : "VEC3"
        },
        {
            "bufferView" : 1,
            "componentType" : 5126,
            "count" : 1122,
            "type" : "VEC3"
        },
        {
            "bufferView" : 2,
            "componentType" : 5126,
            "count" : 1122,
            "type" : "VEC2"
        },
        {
            "bufferView" : 3,
            "componentType" : 5123,
            "count" : 1944,
            "type" : "SCALAR"
        },
        {
            "bufferView" : 5,
            "componentType" : 5126,
            "count" : 4,
            "max" : [
                1,
                0,
                1
            ],
            "min" : [
                -1,
                0,
                -1
            ],
            "type" : "VEC3"
        },
        {
            "bufferView" : 6,
            "componentType" : 5126,
            "count" : 4,
            "type" : "VEC3"
        },
        {
            "bufferView" : 7,
            "componentType" : 5126,
            "count" : 4,
            "type" : "VEC2"
        },
        {
            "bufferView" : 8,
            "componentType" : 5123,
            "count" : 6,
            "type" : "SCALAR"
        }
    ],
    "bufferViews" : [
        {
            "buffer" : 0,
            "byteLength" : 13464,
            "byteOffset" : 0
        },
        {
            "buffer" : 0,
            "byteLength" : 13464,
            "byteOffset" : 13464
        },
        {
            "buffer" : 0,
            "byteLength" : 8976,
            "byteOffset" : 26928
        },
        {
            "buffer" : 0,
            "byteLength" : 3888,
            "byteOffset" : 35904
        },
        {
            "buffer" : 0,
            "byteLength" : 3092822,
            "byteOffset" : 39792
        },
        {
            "buffer" : 0,
            "byteLength" : 48,
            "byteOffset" : 3132616
        },
        {
            "buffer" : 0,
            "byteLength" : 48,
            "byteOffset" : 3132664
        },
        {
            "buffer" : 0,
            "byteLength" : 32,
            "byteOffset" : 3132712
        },
        {
            "buffer" : 0,
            "byteLength" : 12,
            "byteOffset" : 3132744
        }
    ],
    "samplers" : [
        {
            "magFilter" : 9728,
            "minFilter" : 9984
        }
    ],
    "buffers" : [
        {
            "byteLength" : 3132756,
            "uri" : "data:application/octet-stream;base64,"
        }
    ]
}
