{
    "asset" : {
        "generator" : "Khronos glTF Blender I/O v1.1.45",
        "version" : "2.0"
    },
    "scene" : 0,
    "scenes" : [
        {
            "name" : "Scene",
            "nodes" : [
                0,
                1,
                2
            ]
        }
    ],
    "nodes" : [
        {
            "mesh" : 0,
            "name" : "Plane"
        },
        {
            "mesh" : 1,
            "name" : "Plane.001"
        },
        {
            "mesh" : 2,
            "name" : "Plane.002",
            "scale" : [
                100,
                100,
                100
            ],
            "translation" : [
                0,
                -0.5691762566566467,
                0
            ]
        }
    ],
    "meshes" : [
        {
            "name" : "Plane.003",
            "primitives" : [
                {
                    "attributes" : {
                        "POSITION" : 0,
                        "NORMAL" : 1,
                        "TEXCOORD_0" : 2
                    },
                    "indices" : 3
                }
            ]
        },
        {
            "name" : "Plane.004",
            "primitives" : [
                {
                    "attributes" : {
                        "POSITION" : 4,
                        "NORMAL" : 5,
                        "TEXCOORD_0" : 6
                    },
                    "indices" : 7
                }
            ]
        },
        {
            "name" : "Plane.005",
            "primitives" : [
                {
                    "attributes" : {
                        "POSITION" : 8,
                        "NORMAL" : 9,
                        "TEXCOORD_0" : 10
                    },
                    "indices" : 11
                }
            ]
        }
    ],
    "accessors" : [
        {
            "bufferView" : 0,
            "componentType" : 5126,
            "count" : 1125,
            "max" : [
                101.86251831054688,
                73.58090209960938,
                105.69757080078125
            ],
            "min" : [
                -107.93978118896484,
                -4.976907730102539,
                -101.58555603027344
            ],
            "type" : "VEC3"
        },
        {
            "bufferView" : 1,
            "componentType" : 5126,
            "count" : 1125,
            "type" : "VEC3"
        },
        {
            "bufferView" : 2,
            "componentType" : 5126,
            "count" : 1125,
            "type" : "VEC2"
        },
        {
            "bufferView" : 3,
            "componentType" : 5123,
            "count" : 5505,
            "type" : "SCALAR"
        },
        {
            "bufferView" : 4,
            "componentType" : 5126,
            "count" : 1076,
            "max" : [
                51.51515197753906,
                -1.0063482522964478,
                100
            ],
            "min" : [
                -39.393943786621094,
                -1.0063482522964478,
                -100
            ],
            "type" : "VEC3"
        },
        {
            "bufferView" : 5,
            "componentType" : 5126,
            "count" : 1076,
            "type" : "VEC3"
        },
        {
            "bufferView" : 6,
            "componentType" : 5126,
            "count" : 1076,
            "type" : "VEC2"
        },
        {
            "bufferView" : 7,
            "componentType" : 5123,
            "count" : 3084,
            "type" : "SCALAR"
        },
        {
            "bufferView" : 8,
            "componentType" : 5126,
            "count" : 4,
            "max" : [
                1,
                0,
                1
            ],
            "min" : [
                -1,
                0,
                -1
            ],
            "type" : "VEC3"
        },
        {
            "bufferView" : 9,
            "componentType" : 5126,
            "count" : 4,
            "type" : "VEC3"
        },
        {
            "bufferView" : 10,
            "componentType" : 5126,
            "count" : 4,
            "type" : "VEC2"
        },
        {
            "bufferView" : 11,
            "componentType" : 5123,
            "count" : 6,
            "type" : "SCALAR"
        }
    ],
    "bufferViews" : [
        {
            "buffer" : 0,
            "byteLength" : 13500,
            "byteOffset" : 0
        },
        {
            "buffer" : 0,
            "byteLength" : 13500,
            "byteOffset" : 13500
        },
        {
            "buffer" : 0,
            "byteLength" : 9000,
            "byteOffset" : 27000
        },
        {
            "buffer" : 0,
            "byteLength" : 11010,
            "byteOffset" : 36000
        },
        {
            "buffer" : 0,
            "byteLength" : 12912,
            "byteOffset" : 47012
        },
        {
            "buffer" : 0,
            "byteLength" : 12912,
            "byteOffset" : 59924
        },
        {
            "buffer" : 0,
            "byteLength" : 8608,
            "byteOffset" : 72836
        },
        {
            "buffer" : 0,
            "byteLength" : 6168,
            "byteOffset" : 81444
        },
        {
            "buffer" : 0,
            "byteLength" : 48,
            "byteOffset" : 87612
        },
        {
            "buffer" : 0,
            "byteLength" : 48,
            "byteOffset" : 87660
        },
        {
            "buffer" : 0,
            "byteLength" : 32,
            "byteOffset" : 87708
        },
        {
            "buffer" : 0,
            "byteLength" : 12,
            "byteOffset" : 87740
        }
    ],
    "buffers" : [
        {
            "byteLength" : 87752,
            "uri" : "data:application/octet-stream;base64,"
        }
    ]
}
